
<svg xmlns="http://www.w3.org/2000/svg" viewBox="0 0 310 130">
  <path fill="#005DAA" d="M154.6,42c-12.7,0-23.1,10.3-23.1,23.1c0,12.7,10.3,23.1,23.1,23.1c12.7,0,23.1-10.3,23.1-23.1
    C177.7,52.3,167.3,42,154.6,42z M154.6,78.3c-7.3,0-13.3-5.9-13.3-13.3c0-7.3,5.9-13.3,13.3-13.3c7.3,0,13.3,5.9,13.3,13.3
    C167.9,72.4,162,78.3,154.6,78.3z"/>
  <path fill="#005DAA" d="M37.9,50h17.1v-8h-26v46h26v-8H37.9V65h15v-8h-15V50z"/>
  <path fill="#005DAA" d="M85.7,42c-12.7,0-23.1,10.3-23.1,23.1c0,12.7,10.3,23.1,23.1,23.1c12.7,0,23.1-10.3,23.1-23.1
    C108.8,52.3,98.5,42,85.7,42z M85.7,78.3c-7.3,0-13.3-5.9-13.3-13.3c0-7.3,5.9-13.3,13.3-13.3c7.3,0,13.3,5.9,13.3,13.3
    C99,72.4,93.1,78.3,85.7,78.3z"/>
  <path fill="#005DAA" d="M223.4,42c-12.7,0-23.1,10.3-23.1,23.1c0,12.7,10.3,23.1,23.1,23.1c12.7,0,23.1-10.3,23.1-23.1
    C246.5,52.3,236.2,42,223.4,42z M223.4,78.3c-7.3,0-13.3-5.9-13.3-13.3c0-7.3,5.9-13.3,13.3-13.3c7.3,0,13.3,5.9,13.3,13.3
    C236.7,72.4,230.8,78.3,223.4,78.3z"/>
  <path fill="#005DAA" d="M272.1,42h-7.5l-16.3,46h9.5l3.1-9h15l3.1,9h9.5L272.1,42z M263.2,71l5.2-15.6l5.2,15.6H263.2z"/>
</svg>
