
<svg xmlns="http://www.w3.org/2000/svg" viewBox="0 0 300 100">
  <path fill="#003DA6" d="M61.8,25h14.7l23.5,29V25h12.5v50H98.3L74,45.1V75H61.8V25z"/>
  <path fill="#003DA6" d="M162.8,69.1c-6,4.7-13.3,7.1-21.6,7.1c-18.9,0-33.7-14.5-33.7-33.2c0-18.4,14.8-32.7,34-32.7
    c7.6,0,14.7,2.1,20.6,6.4l-6.5,9.6c-4.1-2.9-8.9-4.4-14.2-4.4c-11.9,0-20.9,9.3-20.9,21.1c0,12.1,9,21.7,21.4,21.7
    c5.4,0,10.4-1.7,14.5-5L162.8,69.1z"/>
  <path fill="#003DA6" d="M171.8,25h12.6v19.7h20.3V25h12.6v50h-12.6V55.3h-20.3V75h-12.6V25z"/>
  <path fill="#003DA6" d="M226.9,25h12.6v38.4h19.4V75h-32V25z"/>
</svg>
