
<svg xmlns="http://www.w3.org/2000/svg" viewBox="0 0 200 72" fill="#000">
  <path d="M25.2,14.6c-14,0-25.2,11.3-25.2,25.2C0,54,11.2,65.2,25.2,65.2c13.9,0,25.2-11.3,25.2-25.2C50.4,25.9,39.1,14.6,25.2,14.6z M46.7,29.7l-3.9,0.5c0,0-1.8,0-2-0.1c-0.2-0.1,0.3-0.5,0.3-0.5l7.5-6.4c0,0,1-0.9,1.1-1.4c0.1-0.5-0.1-0.5-0.1-0.5l-4.3,2.6L29.4,35.3c0,0-1.3,1-2.8,0.9c-1.5-0.1-2.7-1.3-2.6-2.9c0.1-1.5,1.3-2.7,2.9-2.6c1.5,0.1,2.7,1.3,2.6,2.9c0,0.4-0.1,0.8-0.3,1.1l8-7.9c0,0,0.5-0.6,0-0.6c-0.5,0-2.5,0-2.5,0L11.8,26c0,0-0.1,0-0.1-0.1c-0.1-0.1,0-0.2,0.2-0.3l5.4-2.1c0,0,15.7-5.6,16.9-6c1.2-0.4,2.3-0.7,3.5-0.2c1.2,0.5,1.6,2.2,1.6,2.2s4,9.7,5.5,13.2c1.5,3.5,2.5,5.6,2.5,5.6S47.2,29.6,46.7,29.7z"/>
</svg>
