
<svg xmlns="http://www.w3.org/2000/svg" viewBox="0 0 180 40" fill="#0071DC">
  <path d="M35.9 7.8c-2.7 0-4.8 2.1-4.8 4.8 0 2.1 1.3 3.9 3.1 4.6-.3.8-.6 1.5-1 2.2-1.1 1.9-2.6 3.3-4.8 3.3-1.5 0-2.6-.7-2.6-2.2 0-1.2.7-2.3 1.8-3.5 1-1 2.1-2.2 2.1-3.8 0-1.7-1.3-3-3.5-3-3.5 0-5.7 3.1-5.7 7 0 3.1 2 5.5 5.2 5.5 4.8 0 8.5-2.9 10.7-7.2.6 2.6 1.7 5.7 3.5 8.7-2.1 1.4-5.4 3-9.2 3-6.7 0-11-3.9-11-10.2 0-6.5 5-11.3 11.8-11.3 5.3 0 9.8 2.8 9.8 7.7 0 3.5-2.7 5.6-5.4 5.6zM160 13.1c0-6.5-4.4-11.1-11.9-11.1h-13.8v30h6.4V21.1h5.5l5.7 10.9h7.2l-6.6-12c4.5-1.3 7.5-4.3 7.5-6.9zM140.8 7h6.8c3.2 0 5.6 1.3 5.6 4.9 0 3.7-2.4 5-5.7 5h-6.8V7zM116.3 13.3c0 8-5.6 13.8-13.7 13.8-8.2 0-13.7-5.8-13.7-13.8C88.9 5.2 94.5 0 102.7 0c8.1 0 13.6 5.2 13.6 13.3zm-20.7 0c0 4.8 2.7 7.7 7 7.7s7-2.9 7-7.7c0-4.5-2.7-7.1-7-7.1s-7 2.7-7 7.1zM86.8 32l-9.3-15.6L86.4 2h-7.2l-5.7 10.4L68 2h-7.4l8.8 14.4L60.1 32h7.2l6.6-11.2 6.6 11.2h6.3zM12.3 17.8c0 5.3 4.3 10.9 11.7 10.9 3.7 0 6.7-.9 9.2-3.3l.1-.1v3c0 3.3-2 5.4-5.7 5.4-2.8 0-4.3-.8-5.6-2.4-.9-1.1-1.1-2-1.1-3.1h-6.4c0 2 .5 3.9 1.6 5.6 2.1 3.2 5.9 5 11.3 5 8.8 0 12.2-4.8 12.2-11.4V2.1h-6v2.3C32.3 3 29.5 2 26.3 2c-7.4 0-14 5.5-14 15.8zm6.3-1.7c0-4.5 2.9-7.7 7.3-7.7 4.5 0 7.3 3.1 7.3 7.7 0 4.5-2.9 7.7-7.3 7.7-4.5 0-7.3-3.2-7.3-7.7zM180 2.1h-6V32h6V2.1zM53.8 2C45.6 2 40 7 40 15.2c0 8.3 5.6 13.3 13.8 13.3 8.1 0 13.7-5 13.7-13.3C67.5 7 61.9 2 53.8 2zm0 20.4c-4.3 0-7-2.9-7-7.7 0-4.5 2.7-7.1 7-7.1s7 2.7 7 7.1c0 4.8-2.7 7.7-7 7.7z"/>
</svg>
